<?xml version="1.0" standalone="no"?>
<!DOCTYPE svg PUBLIC "-//W3C//DTD SVG 20010904//EN"
 "http://www.w3.org/TR/2001/REC-SVG-20010904/DTD/svg10.dtd">
<svg version="1.0" xmlns="http://www.w3.org/2000/svg"
 width="1280.000000pt" height="1280.000000pt" viewBox="0 0 1280.000000 1280.000000"
 preserveAspectRatio="xMidYMid meet">
<metadata>
Created by potrace 1.14, written by Peter Selinger 2001-2017
</metadata>
<g transform="translate(0.000000,1280.000000) scale(0.100000,-0.100000)"
fill="#000000" stroke="none">
<path d="M6207 12444 c-1 -1 -63 -5 -137 -9 -146 -7 -168 -9 -275 -19 -84 -8
-84 -8 -340 -42 -16 -2 -41 -6 -55 -9 -14 -3 -74 -14 -135 -25 -60 -11 -121
-22 -135 -25 -14 -4 -34 -8 -45 -9 -103 -17 -460 -117 -655 -182 -191 -64
-343 -125 -580 -232 -213 -96 -437 -216 -665 -355 -76 -47 -369 -243 -400
-269 -5 -4 -53 -41 -105 -80 -52 -40 -97 -75 -100 -78 -3 -3 -27 -23 -55 -44
-27 -22 -57 -47 -67 -56 -9 -10 -38 -35 -64 -56 -134 -108 -433 -406 -609
-608 -33 -38 -65 -74 -70 -80 -20 -22 -192 -243 -247 -316 -384 -523 -709
-1166 -893 -1765 -20 -66 -40 -131 -45 -145 -8 -21 -65 -244 -75 -290 -2 -8
-10 -45 -19 -81 -17 -75 -16 -71 -51 -264 -25 -142 -27 -158 -45 -300 -20
-171 -26 -228 -36 -403 -13 -221 -8 -661 10 -858 13 -136 35 -332 41 -354 2
-8 7 -39 10 -69 4 -30 9 -63 11 -75 2 -12 7 -37 10 -56 5 -29 25 -130 50 -245
2 -11 6 -31 9 -45 17 -92 120 -462 155 -560 5 -14 23 -65 40 -115 17 -49 35
-99 40 -110 4 -11 25 -63 45 -115 55 -142 119 -286 211 -470 88 -176 214 -403
226 -408 5 -2 8 -8 8 -13 0 -14 166 -268 276 -424 44 -61 262 -338 301 -381
15 -18 39 -45 52 -60 153 -182 481 -502 692 -675 150 -124 143 -118 219 -175
455 -340 902 -593 1420 -802 121 -48 494 -178 535 -185 11 -2 27 -7 35 -10 8
-3 24 -7 35 -10 11 -2 65 -17 120 -32 55 -15 111 -29 125 -31 14 -3 43 -10 65
-15 45 -11 69 -16 105 -23 230 -42 303 -55 345 -61 28 -3 61 -8 75 -10 32 -5
101 -13 265 -30 132 -13 303 -19 550 -19 302 0 429 5 655 30 30 3 71 8 90 10
19 2 67 8 105 14 39 6 85 12 103 15 18 2 45 6 60 9 15 3 43 8 62 11 19 3 42 8
50 10 8 2 29 7 45 9 123 21 420 92 546 131 263 82 688 238 744 273 6 4 12 7
15 7 37 4 456 220 635 328 306 184 725 488 911 662 6 5 53 48 103 94 233 213
509 512 676 731 27 36 52 67 55 70 3 3 28 37 55 75 27 39 52 72 55 75 9 8 159
234 222 335 225 363 435 804 566 1190 76 224 141 442 167 561 2 10 13 60 25
109 11 50 25 114 30 143 5 30 11 61 14 70 3 10 7 34 10 54 3 21 13 77 21 124
8 48 18 112 21 143 3 31 7 70 10 86 3 26 10 96 19 190 25 257 25 875 0 1060
-2 17 -7 60 -10 97 -3 37 -8 77 -10 90 -2 13 -6 48 -9 79 -3 31 -10 79 -16
107 -5 28 -12 73 -16 99 -9 70 -51 283 -75 382 -12 47 -23 95 -26 106 -2 11
-5 25 -7 30 -1 6 -8 30 -15 55 -79 293 -191 611 -321 904 -74 168 -230 473
-294 574 -14 23 -26 44 -26 46 0 13 -177 284 -286 438 -64 90 -233 310 -279
363 -15 17 -45 52 -68 79 -153 181 -504 530 -656 652 -13 10 -28 24 -35 29 -6
6 -36 30 -66 55 -30 25 -57 47 -60 50 -18 21 -312 233 -431 312 -229 151 -367
232 -604 353 -164 83 -456 215 -555 248 -25 9 -70 26 -100 37 -56 22 -232 81
-350 118 -87 27 -305 85 -370 98 -14 3 -41 9 -60 14 -41 11 -61 15 -200 40
-58 11 -114 21 -125 24 -11 2 -45 7 -75 11 -30 4 -62 9 -70 10 -8 2 -42 6 -75
9 -33 4 -71 9 -85 11 -14 2 -55 6 -92 9 -37 4 -85 8 -105 11 -95 11 -667 27
-676 19z m493 -958 c58 -3 119 -8 135 -10 17 -2 62 -7 100 -11 81 -7 248 -30
305 -41 14 -2 39 -7 55 -10 151 -26 277 -55 480 -109 312 -83 722 -249 1055
-427 154 -82 431 -257 579 -365 38 -28 203 -155 226 -174 269 -226 490 -443
676 -667 45 -53 91 -108 103 -122 40 -47 181 -241 211 -289 6 -9 13 -18 16
-21 3 -3 26 -36 50 -75 24 -38 47 -71 51 -73 4 -2 8 -7 8 -11 0 -5 25 -50 56
-100 249 -414 464 -937 572 -1391 11 -44 24 -100 27 -110 2 -10 17 -86 21
-110 3 -14 7 -32 9 -40 7 -22 33 -177 40 -240 4 -30 8 -57 10 -60 1 -3 6 -39
9 -80 4 -41 9 -88 11 -105 25 -196 26 -769 1 -986 -3 -18 -7 -61 -11 -94 -12
-112 -42 -301 -70 -440 -9 -44 -18 -91 -21 -105 -14 -69 -95 -368 -111 -410
-3 -8 -7 -19 -8 -25 -6 -23 -46 -142 -54 -160 -6 -11 -21 -51 -35 -90 -84
-238 -257 -593 -419 -860 -52 -86 -206 -311 -280 -410 -237 -315 -565 -657
-857 -894 -36 -29 -73 -59 -84 -67 -40 -33 -206 -154 -296 -215 -233 -159
-606 -363 -850 -464 -63 -26 -124 -51 -135 -56 -110 -47 -462 -164 -551 -184
-11 -2 -53 -12 -94 -23 -73 -19 -160 -39 -210 -48 -225 -42 -315 -56 -435 -69
-27 -3 -63 -8 -80 -10 -218 -27 -802 -27 -1030 0 -23 3 -61 7 -85 9 -45 5
-229 31 -285 41 -36 7 -130 24 -165 31 -14 3 -54 12 -90 20 -36 8 -72 16 -80
18 -35 8 -216 57 -230 63 -8 3 -22 7 -30 9 -33 7 -269 87 -360 121 -8 4 -17 7
-20 8 -13 5 -48 18 -75 30 -553 235 -957 480 -1397 848 -191 159 -487 460
-645 655 -30 37 -62 76 -71 87 -102 122 -319 445 -429 640 -201 354 -324 647
-472 1120 -10 31 -41 149 -46 175 -2 8 -8 33 -13 55 -12 45 -58 271 -67 325
-3 19 -7 46 -10 60 -5 26 -11 75 -20 150 -3 25 -8 63 -11 85 -16 125 -28 346
-28 545 0 180 9 440 18 490 3 14 7 54 10 90 6 70 21 182 36 270 5 30 12 72 16
94 6 43 6 40 29 146 9 41 19 86 21 100 3 14 7 33 10 42 3 9 7 25 9 35 30 141
163 552 220 678 7 16 30 71 51 120 58 138 198 415 287 565 72 122 280 438 296
450 4 3 20 23 36 45 32 43 151 192 169 211 6 7 34 38 61 70 126 147 281 304
471 474 32 30 177 148 309 253 110 87 407 282 575 376 89 50 318 165 410 206
47 21 104 46 127 56 23 11 48 19 55 19 8 0 18 4 24 9 5 5 36 18 69 30 33 12
69 26 80 31 20 9 222 74 320 104 44 13 187 50 238 62 9 2 25 6 35 8 17 4 160
35 197 42 33 6 127 23 165 28 19 3 51 8 71 11 20 3 51 7 70 9 19 2 61 7 94 11
33 3 78 8 100 10 22 3 99 7 170 11 72 3 131 7 132 8 5 4 375 -2 473 -8z"/>
<path d="M6118 10785 c-2 -2 -35 -6 -73 -9 -129 -10 -347 -37 -415 -52 -14 -3
-38 -7 -55 -9 -16 -3 -41 -7 -55 -10 -14 -3 -34 -7 -45 -9 -11 -3 -58 -14
-105 -26 -47 -11 -96 -23 -110 -26 -125 -25 -459 -142 -665 -233 -139 -62
-396 -192 -425 -216 -8 -6 -22 -15 -30 -18 -14 -5 -131 -79 -241 -151 -43 -28
-212 -151 -236 -171 -6 -5 -29 -23 -50 -40 -167 -132 -397 -351 -533 -505 -41
-47 -77 -87 -80 -90 -3 -3 -24 -27 -45 -55 -22 -27 -43 -52 -46 -55 -3 -3 -25
-32 -50 -65 -24 -33 -47 -62 -50 -65 -15 -12 -181 -266 -242 -370 -62 -104
-239 -449 -243 -475 -2 -5 -17 -44 -35 -85 -51 -119 -54 -128 -102 -270 -37
-111 -66 -209 -102 -350 -15 -59 -56 -241 -61 -270 -3 -19 -12 -73 -20 -119
-8 -46 -17 -109 -20 -140 -4 -31 -8 -69 -10 -86 -26 -236 -26 -710 0 -927 2
-12 7 -52 11 -88 4 -36 9 -74 11 -85 2 -11 7 -40 10 -65 7 -53 11 -76 18 -98
3 -9 8 -35 11 -57 4 -22 8 -44 9 -50 1 -5 8 -37 15 -70 7 -33 22 -91 33 -130
10 -38 26 -95 34 -125 15 -55 40 -138 54 -175 5 -11 22 -60 40 -110 40 -111
132 -330 172 -410 17 -33 36 -71 43 -85 68 -137 210 -376 277 -467 21 -29 38
-55 38 -58 0 -3 17 -27 38 -54 20 -27 46 -61 57 -77 150 -209 434 -510 670
-709 39 -32 72 -61 75 -65 7 -9 198 -151 255 -190 28 -19 52 -36 55 -39 3 -3
14 -11 25 -18 11 -7 63 -39 115 -72 174 -109 441 -247 620 -321 58 -23 119
-48 135 -55 49 -21 295 -103 360 -121 135 -36 245 -63 340 -83 149 -30 216
-41 335 -56 30 -3 69 -8 85 -10 96 -13 260 -20 480 -20 298 1 367 6 695 50 49
6 286 56 365 77 44 11 87 22 95 23 8 2 15 4 15 5 0 1 10 3 21 6 40 7 389 126
399 135 5 5 15 9 22 9 8 0 33 9 55 20 23 11 46 20 50 20 23 0 430 208 554 283
394 238 762 545 1047 872 38 44 79 91 91 105 48 54 192 249 276 374 142 212
280 467 374 692 26 60 51 117 56 126 6 10 10 23 10 29 0 6 7 25 15 42 31 69
140 419 159 513 3 10 14 62 25 114 12 52 24 111 27 130 3 19 7 46 10 60 2 14
7 43 10 65 2 22 7 49 9 61 2 11 7 45 10 75 3 30 8 64 10 76 19 90 27 614 12
803 -9 122 -26 264 -42 355 -2 11 -6 40 -10 65 -7 43 -21 113 -50 245 -30 134
-104 381 -164 545 -60 165 -192 453 -273 595 -22 38 -52 90 -66 115 -13 25
-31 52 -38 61 -8 8 -14 19 -14 23 0 13 -215 324 -265 383 -5 7 -15 18 -20 25
-61 77 -96 120 -130 158 -184 206 -300 319 -523 513 -31 26 -198 154 -272 207
-32 23 -180 119 -225 147 -202 124 -470 259 -670 338 -66 26 -129 51 -140 56
-66 28 -422 134 -516 153 -13 3 -35 7 -49 11 -73 16 -268 51 -339 61 -25 3
-57 8 -71 10 -14 2 -59 6 -100 9 -41 4 -86 9 -100 12 -26 6 -606 13 -612 8z
m172 -1641 c29 -9 61 -17 69 -19 9 -2 69 -17 135 -35 65 -17 129 -34 142 -36
33 -6 74 -22 74 -30 0 -3 -14 -58 -31 -122 -17 -65 -32 -124 -34 -132 -2 -8
-10 -40 -19 -71 -9 -31 -18 -65 -21 -75 -2 -11 -20 -82 -40 -159 -35 -133 -40
-151 -52 -201 -4 -18 2 -22 54 -33 96 -21 124 -28 228 -55 55 -14 100 -26 101
-26 3 0 16 57 15 65 0 2 6 23 14 46 9 23 17 51 19 63 2 12 15 64 29 116 14 52
49 183 77 290 29 107 53 196 55 198 2 2 27 -4 58 -13 30 -8 63 -18 73 -20 81
-18 341 -90 348 -96 4 -4 1 -31 -7 -61 -9 -29 -18 -64 -21 -78 -5 -23 -26
-101 -126 -475 -18 -66 -34 -131 -36 -144 -3 -13 -6 -28 -7 -34 -1 -5 19 -17
45 -26 26 -9 50 -19 54 -23 4 -5 13 -8 20 -8 16 0 116 -45 239 -107 217 -109
405 -265 497 -413 117 -187 147 -380 98 -621 -58 -285 -192 -476 -410 -583
-30 -15 -62 -31 -70 -35 -8 -4 -43 -16 -78 -26 l-63 -19 54 -30 c172 -99 313
-238 385 -381 126 -249 96 -599 -80 -945 -170 -335 -446 -514 -843 -547 -119
-9 -376 -3 -450 11 -11 2 -46 7 -78 10 -32 4 -95 14 -140 22 -162 30 -155 30
-162 -2 -4 -16 -11 -42 -15 -59 -16 -53 -62 -229 -66 -250 -2 -11 -22 -87 -45
-170 -44 -163 -42 -155 -53 -205 -4 -19 -12 -48 -18 -63 -13 -33 -12 -33 -143
3 -44 12 -89 24 -100 27 -11 2 -24 5 -30 6 -5 2 -58 15 -116 31 -97 26 -106
30 -102 50 8 32 48 187 83 321 18 66 33 127 35 135 2 8 21 82 44 164 22 81 38
152 36 156 -3 5 -20 11 -38 15 -17 4 -63 16 -101 27 -38 11 -76 21 -85 23 -9
2 -49 12 -88 23 l-73 21 -6 -27 c-8 -34 -86 -332 -126 -482 -16 -63 -39 -151
-50 -195 -12 -44 -24 -84 -28 -88 -8 -9 -32 -4 -240 52 -63 17 -146 39 -183
48 -44 11 -66 21 -63 29 6 15 91 340 156 595 26 103 50 191 54 197 3 6 -8 13
-26 17 -32 7 -288 75 -358 95 -19 6 -105 28 -190 50 -85 22 -168 44 -185 49
-16 6 -41 12 -55 15 -89 19 -165 44 -162 56 2 7 55 128 117 268 63 140 115
258 115 263 0 18 21 13 365 -80 51 -13 114 -4 155 23 35 23 76 87 85 134 2 11
19 80 39 153 19 74 42 159 50 189 8 30 29 109 46 175 18 66 33 127 35 135 4
16 55 211 117 440 21 80 41 156 44 170 3 14 9 39 15 56 5 17 11 40 13 50 2 10
23 91 46 179 23 88 51 194 62 235 11 41 21 82 23 90 2 8 14 56 28 105 50 175
55 225 33 292 -39 116 -112 156 -426 233 -74 18 -136 34 -138 35 -1 1 21 89
49 196 62 235 56 214 71 272 11 46 13 48 42 44 17 -3 67 -15 111 -27 44 -12
85 -23 90 -24 6 -2 24 -6 40 -10 74 -19 293 -77 325 -86 19 -5 67 -18 105 -29
39 -11 81 -22 95 -25 14 -3 61 -14 105 -25 44 -11 83 -17 86 -13 6 7 22 61 39
132 4 19 27 105 49 190 23 85 43 162 45 170 3 8 14 51 26 95 12 44 23 87 25
95 13 62 30 110 39 110 1 0 26 -7 56 -16z"/>
<path d="M6365 7657 c-7 -24 -37 -132 -40 -147 -3 -13 -13 -54 -41 -160 -2 -8
-28 -107 -58 -220 -30 -113 -68 -257 -84 -320 l-30 -115 26 -8 c73 -21 331
-87 362 -92 19 -3 53 -10 75 -15 103 -23 344 -32 430 -17 200 36 309 125 371
302 23 66 24 202 1 270 -58 172 -262 321 -577 420 -79 25 -255 73 -293 80 -12
3 -34 7 -49 11 -15 3 -31 6 -35 6 -5 0 -18 4 -31 9 -16 6 -24 5 -27 -4z"/>
<path d="M5972 6163 c-8 -30 -211 -798 -228 -863 -2 -8 -12 -49 -23 -90 -11
-41 -17 -78 -13 -81 4 -3 36 -14 72 -23 36 -9 72 -20 80 -23 8 -3 20 -7 25 -8
6 -2 67 -16 135 -33 123 -30 201 -46 270 -57 19 -3 46 -7 60 -10 155 -27 366
-27 494 -1 129 27 245 101 305 194 105 165 100 381 -12 527 -92 118 -253 227
-447 301 -36 14 -81 32 -100 39 -40 17 -293 92 -330 99 -14 2 -80 18 -147 35
-66 17 -123 31 -126 31 -2 0 -9 -17 -15 -37z"/>
</g>
</svg>
